<?xml version="1.0" standalone="no"?>
<!DOCTYPE svg PUBLIC "-//W3C//DTD SVG 20010904//EN"
 "http://www.w3.org/TR/2001/REC-SVG-20010904/DTD/svg10.dtd">
<svg version="1.0" xmlns="http://www.w3.org/2000/svg"
 width="1024.000000pt" height="1024.000000pt" viewBox="0 0 1024.000000 1024.000000"
 preserveAspectRatio="xMidYMid meet">
<metadata>
Created by potrace 1.14, written by Peter Selinger 2001-2017
</metadata>
<g transform="translate(0.000000,1024.000000) scale(0.100000,-0.100000)"
fill="#000000" stroke="none">
<path d="M4870 7799 c-58 -22 -204 -77 -325 -121 -121 -44 -256 -93 -300 -109
-44 -17 -123 -45 -175 -63 -52 -18 -124 -45 -160 -59 -36 -14 -123 -46 -195
-72 -71 -26 -224 -82 -340 -125 -115 -43 -232 -85 -260 -94 -27 -9 -102 -37
-165 -61 -63 -24 -221 -83 -350 -131 -129 -47 -293 -109 -365 -136 -71 -27
-184 -69 -250 -93 -66 -24 -169 -62 -230 -85 -260 -98 -357 -133 -465 -171
-63 -21 -122 -42 -130 -45 -13 -5 84 -46 320 -134 41 -15 118 -45 170 -65 52
-20 120 -45 150 -56 30 -10 64 -23 75 -29 11 -5 85 -34 165 -64 80 -30 199
-76 265 -101 66 -26 190 -73 275 -105 281 -107 344 -131 362 -141 17 -9 18
-40 18 -554 l0 -544 -29 -78 c-72 -197 -127 -371 -140 -443 -68 -369 -49 -659
63 -987 108 -316 397 -665 724 -876 71 -46 307 -167 326 -167 33 0 26 -29 -32
-126 -118 -198 -160 -270 -186 -319 -30 -56 -51 -91 -107 -180 -20 -33 -46
-76 -57 -95 -10 -19 -56 -97 -101 -173 -82 -140 -90 -157 -69 -157 12 0 455
197 473 210 6 4 28 13 50 20 36 12 233 97 310 135 17 8 48 21 70 29 22 8 87
35 145 61 58 26 152 67 210 92 58 25 134 58 169 75 35 16 125 56 200 88 75 32
183 79 241 105 58 26 116 50 130 55 14 4 48 18 75 30 28 13 147 65 265 117
232 102 237 104 363 162 46 21 95 42 108 46 13 4 62 26 109 47 179 84 206 96
229 103 13 4 67 27 120 52 137 64 314 140 401 173 19 7 40 17 45 21 6 4 35 17
65 29 144 56 303 178 400 308 98 128 167 304 190 482 14 104 8 541 -9 660 -58
426 -206 770 -462 1077 -108 129 -326 315 -434 371 -63 32 -83 50 -65 56 23 8
287 106 355 132 33 12 94 37 135 54 41 17 122 49 180 70 58 21 182 69 275 105
94 37 211 81 260 99 50 19 230 88 400 154 171 66 338 130 373 142 34 13 60 25
57 28 -5 5 -103 42 -375 141 -137 50 -161 59 -185 71 -11 5 -87 34 -170 64
-82 30 -247 91 -365 136 -118 45 -251 94 -295 110 -44 15 -116 42 -160 60 -44
18 -109 42 -145 54 -62 21 -387 143 -550 206 -41 16 -133 50 -203 74 -71 25
-163 59 -205 76 -43 16 -264 97 -492 180 -228 83 -449 164 -490 180 -84 33
-162 60 -170 59 -3 0 -52 -18 -110 -40z m376 -1358 c45 -11 106 -31 136 -44
63 -28 118 -88 118 -128 0 -57 -108 -116 -270 -149 -90 -19 -127 -21 -260 -17
-88 3 -183 12 -221 21 -130 31 -259 105 -259 149 0 17 83 91 131 116 68 36
117 52 204 67 107 18 313 11 421 -15z m1002 -1106 c174 -72 194 -82 337 -166
304 -180 526 -482 626 -854 46 -172 58 -287 59 -551 0 -269 -12 -338 -80 -454
-48 -82 -101 -122 -261 -198 -57 -27 -142 -68 -189 -90 -47 -22 -148 -67 -225
-100 -140 -61 -208 -91 -363 -163 -46 -22 -86 -39 -89 -39 -2 0 -87 -38 -188
-85 -101 -47 -186 -85 -189 -85 -3 0 -34 -13 -68 -29 -113 -53 -263 -118 -288
-126 -14 -4 -65 -27 -113 -52 -48 -24 -111 -53 -140 -64 -29 -11 -108 -47
-177 -79 -144 -67 -464 -205 -499 -215 -27 -8 -25 -2 19 55 15 19 43 64 62
100 19 36 58 90 86 119 27 30 57 68 67 83 19 33 28 29 -115 58 -368 77 -537
139 -724 267 -151 104 -317 271 -394 398 -119 195 -192 451 -192 665 1 268
107 625 249 835 122 181 122 182 206 230 102 59 368 189 510 251 l110 47 195
3 c107 1 211 7 230 11 24 6 43 5 60 -4 14 -7 45 -13 70 -14 25 -1 37 -3 27 -6
-15 -4 -18 -11 -13 -36 3 -18 8 -112 12 -209 l7 -178 97 0 97 0 7 207 c4 114
10 211 12 215 3 4 25 8 49 8 47 0 54 2 555 177 173 61 329 115 345 121 17 6
36 11 43 11 7 1 83 -28 170 -64z"/>
<path d="M6253 4598 c-4 -7 -9 -61 -11 -120 l-4 -108 -139 0 -139 0 0 -125 0
-125 140 0 140 0 0 -357 c0 -271 4 -374 15 -425 42 -202 206 -310 425 -280 54
7 54 7 67 52 8 25 12 79 11 120 l-3 75 -70 1 c-90 1 -119 14 -145 63 -19 39
-20 55 -18 393 l3 353 30 1 c17 1 69 2 118 3 l87 1 0 125 0 125 -120 0 -120 0
0 108 c0 71 -4 112 -12 120 -17 17 -244 17 -255 0z"/>
<path d="M4826 4238 c-4 -183 -6 -522 -4 -753 l3 -420 138 -3 137 -3 0 268 c0
152 5 284 10 305 18 65 70 130 125 158 42 21 64 24 140 25 100 0 160 -22 215
-77 53 -52 60 -101 60 -405 l0 -273 165 0 c91 0 165 3 165 8 0 4 -12 25 -25
47 -25 39 -25 43 -25 265 0 267 -12 352 -66 447 -48 86 -83 124 -159 172 -108
69 -170 85 -320 85 -110 0 -139 -3 -190 -22 -33 -13 -68 -25 -77 -29 -17 -5
-18 12 -18 266 l0 271 -134 0 -134 0 -6 -332z"/>
<path d="M4140 4356 c-117 -36 -177 -73 -269 -165 -122 -122 -175 -243 -187
-426 -18 -269 95 -493 318 -628 102 -62 182 -82 323 -81 127 0 206 19 302 69
46 24 183 125 183 135 0 12 -97 97 -151 134 l-56 38 -67 -46 c-150 -103 -304
-99 -441 12 -114 91 -161 258 -124 434 35 163 167 277 332 286 100 6 158 -15
280 -101 l26 -19 91 74 c112 91 119 108 61 160 -43 37 -167 102 -218 114 -16
3 -45 12 -66 20 -62 23 -246 18 -337 -10z"/>
<path d="M10080 80 l0 -80 80 0 80 0 0 80 0 80 -80 0 -80 0 0 -80z"/>
</g>
</svg>
